<?xml version="1.0" standalone="no"?>
<!DOCTYPE svg PUBLIC "-//W3C//DTD SVG 20010904//EN"
 "http://www.w3.org/TR/2001/REC-SVG-20010904/DTD/svg10.dtd">
<svg version="1.0" xmlns="http://www.w3.org/2000/svg"
 width="480.000000pt" height="480.000000pt" viewBox="0 0 480.000000 480.000000"
 preserveAspectRatio="xMidYMid meet">
<metadata>
Created by potrace 1.15, written by Peter Selinger 2001-2017
</metadata>
<g transform="translate(0.000000,480.000000) scale(0.100000,-0.100000)"
fill="#000000" stroke="none">
<path d="M4018 4274 c-10 -21 -8 -33 14 -78 l26 -53 -34 -17 c-44 -20 -41 -21
-59 15 -34 65 -77 86 -109 53 -22 -21 -20 -62 5 -103 11 -18 19 -34 17 -36 -6
-5 -67 -35 -72 -35 -3 0 -15 18 -27 40 -34 60 -87 67 -111 14 -10 -22 -8 -32
15 -73 l27 -48 -118 -114 c-199 -194 -1273 -1193 -1296 -1206 -41 -23 -91 -16
-125 19 -84 86 -63 200 72 379 67 90 77 123 48 161 -46 59 -153 62 -265 10
-51 -24 -88 -52 -145 -110 -89 -90 -119 -139 -207 -334 -191 -423 -191 -424
-624 -562 -169 -54 -270 -109 -365 -197 -128 -120 -185 -242 -185 -396 0 -149
47 -272 171 -448 77 -108 414 -451 509 -517 151 -105 258 -142 395 -136 124 5
198 41 306 147 123 122 209 271 293 506 93 261 114 296 214 364 32 21 134 77
229 125 186 93 242 140 291 238 29 60 30 135 1 172 -31 39 -71 34 -172 -19
-106 -57 -165 -66 -224 -37 -74 38 -134 130 -121 185 1 8 302 345 667 748
l665 734 145 6 c93 4 147 11 149 18 10 29 158 250 190 285 41 43 87 66 130 66
28 0 40 13 56 64 10 30 -13 84 -44 106 -34 25 -112 27 -155 4 -33 -17 -40 -12
-77 55 -14 26 -23 31 -53 31 -28 0 -38 -5 -47 -26z m-1835 -1742 c14 -6 -15
-38 -153 -166 l-170 -158 69 -77 c38 -42 100 -106 138 -143 l68 -67 79 89 80
89 28 -52 c31 -58 89 -115 146 -143 27 -14 59 -19 122 -19 79 1 91 3 159 38
40 21 76 36 79 33 10 -11 -72 -118 -109 -141 -20 -13 -101 -56 -180 -96 -287
-143 -339 -195 -419 -417 -15 -40 -33 -70 -48 -80 -22 -15 -28 -14 -75 2 -60
21 -240 40 -314 33 l-52 -6 19 27 c29 41 33 73 13 109 -10 18 -84 102 -165
186 l-148 154 19 76 c71 278 263 522 516 658 124 67 238 94 298 71z"/>
<path d="M1550 2013 c-47 -18 -75 -69 -64 -116 7 -33 285 -331 331 -355 61
-33 133 16 133 90 0 34 -9 48 -89 136 -202 220 -259 266 -311 245z"/>
</g>
</svg>
