<?xml version="1.0" standalone="no"?>
<!DOCTYPE svg PUBLIC "-//W3C//DTD SVG 20010904//EN"
 "http://www.w3.org/TR/2001/REC-SVG-20010904/DTD/svg10.dtd">
<svg version="1.0" xmlns="http://www.w3.org/2000/svg"
 width="480.000000pt" height="480.000000pt" viewBox="0 0 480.000000 480.000000"
 preserveAspectRatio="xMidYMid meet">
<metadata>
Created by potrace 1.15, written by Peter Selinger 2001-2017
</metadata>
<g transform="translate(0.000000,480.000000) scale(0.100000,-0.100000)"
fill="#000000" stroke="none">
<path d="M2165 4281 c-308 -56 -560 -172 -802 -368 -393 -318 -638 -799 -660
-1298 -6 -134 -7 -142 -35 -183 -65 -95 -69 -123 -66 -451 l3 -296 29 -60 c38
-77 115 -153 191 -190 57 -28 67 -30 218 -33 l157 -4 0 601 0 601 -146 0 -147
0 7 68 c17 168 73 366 151 529 240 508 744 858 1283 892 444 27 852 -129 1172
-449 128 -128 221 -256 300 -415 90 -181 147 -374 166 -557 l7 -68 -147 0
-146 0 0 -601 0 -601 158 4 c150 3 160 5 217 33 76 37 153 113 191 190 l29 60
3 296 c3 329 -1 356 -66 451 -28 41 -29 49 -35 178 -11 280 -97 569 -242 815
-257 438 -671 738 -1163 846 -141 31 -484 36 -627 10z"/>
</g>
</svg>
