<?xml version="1.0" standalone="no"?>
<!DOCTYPE svg PUBLIC "-//W3C//DTD SVG 20010904//EN"
 "http://www.w3.org/TR/2001/REC-SVG-20010904/DTD/svg10.dtd">
<svg version="1.0" xmlns="http://www.w3.org/2000/svg"
 width="1000.000000pt" height="984.000000pt" viewBox="0 0 1000.000000 984.000000"
 preserveAspectRatio="xMidYMid meet">
<metadata>
Created by potrace 1.15, written by Peter Selinger 2001-2017
</metadata>
<g transform="translate(0.000000,984.000000) scale(0.100000,-0.100000)"
fill="#000000" stroke="none">
<path d="M4115 9191 c-126 -31 -227 -144 -249 -276 -4 -22 -11 -65 -16 -95 -5
-30 -14 -80 -19 -110 -6 -30 -37 -215 -70 -410 -33 -195 -85 -499 -115 -675
-30 -176 -64 -376 -75 -445 -12 -69 -28 -161 -36 -205 -13 -69 -66 -375 -96
-557 -5 -32 -14 -86 -20 -120 -6 -35 -15 -85 -19 -113 -20 -122 -31 -184 -40
-235 -5 -30 -14 -84 -20 -120 -6 -36 -15 -91 -20 -122 -6 -32 -14 -84 -20
-115 -5 -32 -14 -85 -20 -118 -6 -33 -15 -85 -20 -115 -5 -30 -14 -82 -20
-115 -6 -33 -15 -87 -21 -120 -5 -33 -13 -85 -19 -115 -5 -30 -14 -84 -20
-120 -14 -88 -27 -162 -41 -240 -6 -36 -15 -87 -19 -115 -11 -65 -26 -155 -40
-230 -6 -33 -15 -87 -21 -120 -5 -33 -14 -86 -19 -117 -6 -32 -15 -86 -20
-120 -22 -129 -43 -250 -59 -328 -5 -25 -14 -70 -20 -100 -6 -30 -15 -75 -21
-100 -6 -25 -14 -67 -19 -95 -6 -27 -15 -75 -22 -105 -11 -56 -17 -86 -39
-195 -7 -33 -16 -78 -20 -100 -4 -22 -13 -65 -19 -95 -6 -30 -15 -75 -21 -100
-9 -41 -16 -74 -40 -195 -4 -22 -22 -110 -40 -195 -32 -151 -40 -193 -60 -295
-5 -27 -13 -70 -19 -95 -5 -25 -14 -70 -20 -100 -6 -30 -25 -120 -42 -200 -52
-243 -50 -338 9 -434 50 -81 152 -145 235 -147 80 -3 78 3 77 -203 -1 -213 7
-242 89 -319 85 -79 96 -82 346 -82 245 0 260 3 336 72 87 79 101 123 108 348
l6 180 995 0 995 0 5 -185 c3 -102 9 -194 14 -205 40 -99 67 -131 154 -183
l47 -27 225 0 c224 0 225 0 275 27 60 32 105 77 137 138 21 42 23 59 26 230 2
110 8 190 14 197 6 7 32 13 59 13 90 0 204 75 246 162 49 100 53 163 23 308
-7 30 -16 75 -21 100 -6 25 -14 65 -18 90 -15 75 -30 153 -41 200 -6 25 -14
68 -19 95 -6 28 -15 75 -22 105 -6 30 -15 73 -19 95 -4 22 -18 87 -30 145 -12
58 -26 123 -30 145 -5 22 -13 67 -20 100 -7 33 -16 78 -20 100 -4 22 -13 65
-19 95 -6 30 -24 118 -40 195 -60 291 -94 451 -101 490 -42 212 -49 248 -60
315 -5 30 -41 240 -80 465 -38 226 -100 586 -136 800 l-66 391 212 369 c116
204 217 376 224 383 7 8 43 14 87 16 105 4 151 31 280 163 270 277 283 297
283 443 -1 112 -19 160 -90 234 l-45 47 34 62 c19 34 43 78 54 97 216 371 226
391 226 447 0 58 -16 90 -66 127 -33 24 -109 27 -152 6 -29 -15 -81 -82 -121
-159 -10 -20 -48 -85 -82 -146 -35 -60 -80 -139 -99 -175 -20 -36 -44 -74 -54
-84 -17 -18 -21 -18 -45 -5 -18 9 -56 14 -113 13 -97 0 -148 -19 -220 -81 -62
-52 -77 -88 -151 -346 -12 -39 -30 -101 -40 -137 -23 -75 -26 -187 -7 -240 6
-19 23 -52 35 -73 28 -44 42 -8 -117 -287 -57 -99 -108 -177 -112 -173 -5 5
-25 103 -44 218 -20 116 -41 235 -46 265 -6 30 -14 80 -19 110 -5 30 -32 190
-60 355 -28 165 -55 325 -60 355 -5 30 -14 82 -20 115 -6 33 -15 87 -21 120
-5 33 -13 85 -19 115 -5 30 -14 83 -20 118 -5 34 -14 88 -20 120 -5 31 -14 86
-20 122 -6 36 -15 90 -21 120 -5 30 -12 71 -15 90 -2 19 -9 58 -14 85 -5 28
-14 79 -20 115 -6 36 -15 88 -20 115 -5 28 -14 82 -20 120 -6 39 -15 90 -20
115 -4 25 -14 79 -20 120 -26 165 -78 247 -195 308 l-50 27 -635 2 c-349 1
-648 -2 -665 -6z m361 -338 c-3 -16 -17 -99 -31 -185 -14 -87 -28 -163 -30
-170 -3 -7 -9 -42 -14 -78 -5 -36 -30 -185 -55 -331 -42 -251 -47 -267 -74
-297 -16 -17 -35 -52 -41 -76 -9 -39 -8 -53 8 -95 l19 -50 -49 -288 c-26 -158
-53 -313 -58 -343 -10 -51 -37 -207 -48 -275 -36 -215 -117 -696 -154 -905
-11 -63 -24 -140 -29 -170 -12 -80 -43 -261 -90 -535 -23 -132 -45 -265 -50
-295 -14 -92 -80 -482 -90 -535 -10 -53 -22 -126 -41 -240 -6 -38 -14 -86 -18
-105 l-7 -35 -149 0 c-101 0 -149 4 -148 11 1 6 11 64 22 130 11 65 34 200 51
299 18 99 36 205 40 235 5 30 16 93 24 140 9 47 23 126 31 175 8 50 26 158 40
240 14 83 44 256 66 385 22 129 44 260 50 290 5 30 16 93 24 140 15 93 28 171
55 330 20 116 49 284 81 473 11 67 25 145 30 172 5 28 18 109 29 180 12 72 25
150 30 175 5 25 14 77 20 115 6 39 15 95 21 125 6 30 14 78 20 105 8 44 42
249 70 420 13 81 28 169 39 235 6 30 14 82 19 115 6 33 15 87 21 120 6 33 15
85 20 115 29 179 50 292 55 300 4 6 68 10 151 10 l146 0 -6 -27z m2425 -1925
c72 -44 119 -79 119 -88 0 -9 -62 -81 -139 -161 l-138 -144 -39 22 c-22 12
-43 29 -49 37 -16 25 94 406 117 406 6 0 64 -33 129 -72z m-3337 -3416 c7 -12
-80 -455 -170 -867 -14 -66 -32 -154 -40 -195 -7 -41 -25 -129 -39 -195 -15
-66 -30 -140 -35 -165 -20 -111 -30 -162 -50 -255 -12 -55 -38 -181 -59 -280
l-36 -180 -142 -2 c-107 -1 -144 2 -153 12 -8 9 -7 33 4 86 8 41 16 85 19 99
6 32 80 392 118 575 16 77 33 160 38 185 5 25 16 81 25 125 9 44 21 105 27
135 6 30 15 73 20 95 10 43 57 275 69 340 4 22 18 87 30 145 25 118 34 161 48
240 6 30 15 67 21 83 l11 27 144 0 c80 0 147 -4 150 -8z"/>
</g>
</svg>
