<?xml version="1.0" standalone="no"?>
<!DOCTYPE svg PUBLIC "-//W3C//DTD SVG 20010904//EN"
 "http://www.w3.org/TR/2001/REC-SVG-20010904/DTD/svg10.dtd">
<svg version="1.0" xmlns="http://www.w3.org/2000/svg"
 width="480.000000pt" height="480.000000pt" viewBox="0 0 480.000000 480.000000"
 preserveAspectRatio="xMidYMid meet">
<metadata>
Created by potrace 1.15, written by Peter Selinger 2001-2017
</metadata>
<g transform="translate(0.000000,480.000000) scale(0.100000,-0.100000)"
fill="#000000" stroke="none">
<path d="M2733 3852 l-1133 -346 0 -939 c0 -748 -3 -938 -12 -934 -128 57
-144 61 -258 65 -197 7 -322 -40 -455 -173 -87 -86 -131 -162 -159 -272 -20
-77 -21 -231 -1 -306 54 -207 225 -378 432 -432 73 -19 233 -19 306 0 206 53
379 226 432 432 13 48 15 183 15 873 l0 816 263 86 c144 47 523 172 843 277
320 105 584 191 588 191 3 0 6 -261 6 -581 0 -461 -3 -580 -12 -576 -128 57
-144 61 -258 65 -197 7 -322 -40 -455 -173 -87 -86 -131 -162 -159 -272 -20
-77 -21 -231 -1 -306 54 -207 225 -378 432 -432 73 -19 233 -19 306 0 206 53
379 226 432 432 13 49 15 250 15 1455 0 1325 -1 1398 -17 1397 -10 -1 -528
-157 -1150 -347z"/>
</g>
</svg>
