<?xml version="1.0" standalone="no"?>
<!DOCTYPE svg PUBLIC "-//W3C//DTD SVG 20010904//EN"
 "http://www.w3.org/TR/2001/REC-SVG-20010904/DTD/svg10.dtd">
<svg version="1.0" xmlns="http://www.w3.org/2000/svg"
 width="480.000000pt" height="480.000000pt" viewBox="0 0 480.000000 480.000000"
 preserveAspectRatio="xMidYMid meet">
<metadata>
Created by potrace 1.15, written by Peter Selinger 2001-2017
</metadata>
<g transform="translate(0.000000,480.000000) scale(0.100000,-0.100000)"
fill="#000000" stroke="none">
<path d="M1001 4084 c-143 -38 -304 -165 -366 -289 l-30 -60 -3 -1437 -2
-1437 21 -58 c30 -78 104 -152 182 -181 l58 -22 1539 0 1539 0 58 22 c78 29
152 103 182 182 l21 58 -2 896 -3 897 -22 59 c-69 183 -210 320 -382 370 -44
13 -107 16 -325 16 -300 0 -418 10 -503 41 -78 29 -183 99 -225 151 -19 24
-111 166 -203 316 -186 303 -237 365 -353 425 -129 68 -124 67 -651 66 -382 0
-487 -3 -530 -15z m289 -2634 l0 -350 140 0 140 0 0 350 0 350 70 0 70 0 0
-350 0 -350 135 0 135 0 0 123 c0 68 3 226 7 350 l6 227 64 0 63 0 0 -350 0
-350 140 0 140 0 0 350 0 350 203 0 204 0 6 -227 c4 -124 7 -282 7 -350 l0
-123 135 0 135 0 0 350 0 350 70 0 70 0 0 -350 0 -350 140 0 140 0 0 350 0
350 245 0 245 0 0 -452 c0 -432 -1 -455 -20 -485 -41 -68 78 -63 -1580 -63
-1658 0 -1539 -5 -1580 63 -19 30 -20 53 -20 485 l0 452 245 0 245 0 0 -350z"/>
</g>
</svg>
