<?xml version="1.0" standalone="no"?>
<!DOCTYPE svg PUBLIC "-//W3C//DTD SVG 20010904//EN"
 "http://www.w3.org/TR/2001/REC-SVG-20010904/DTD/svg10.dtd">
<svg version="1.0" xmlns="http://www.w3.org/2000/svg"
 width="3971.000000pt" height="3268.000000pt" viewBox="0 0 3971.000000 3268.000000"
 preserveAspectRatio="xMidYMid meet">
<metadata>
Created by potrace 1.15, written by Peter Selinger 2001-2017
</metadata>
<g transform="translate(0.000000,3268.000000) scale(0.100000,-0.100000)"
fill="#000000" stroke="none">
<path d="M7465 31654 c-132 -6 -276 -12 -319 -13 l-79 -1 6 -1447 c4 -797 11
-1756 16 -2133 6 -377 15 -1018 21 -1425 6 -407 22 -1487 35 -2400 66 -4433
73 -4974 82 -5999 l6 -859 -24 7 c-175 50 -592 134 -844 170 -1688 242 -3183
-105 -3825 -889 -239 -292 -441 -794 -517 -1285 -24 -162 -25 -521 0 -679 90
-574 387 -1078 874 -1486 991 -829 2610 -1134 3954 -745 1254 363 2072 1264
2293 2526 23 133 52 384 59 524 3 63 -29 4740 -74 10543 -11 1545 -19 2810
-17 2812 2 3 20 0 39 -5 19 -6 142 -26 274 -45 773 -113 1312 -246 1900 -467
689 -260 1382 -659 1901 -1095 139 -117 383 -363 474 -478 214 -270 358 -561
422 -855 20 -93 23 -132 22 -335 0 -212 -2 -240 -27 -360 -87 -411 -301 -850
-661 -1355 -33 -47 -133 -164 -222 -260 -348 -377 -424 -491 -388 -585 11 -26
63 -47 120 -46 267 3 971 480 1475 999 606 623 967 1266 1076 1917 26 155 26
625 0 800 -147 991 -739 1807 -1950 2687 -1151 837 -2597 1551 -4217 2083
-397 130 -525 159 -825 184 -157 14 -757 11 -1060 -5z"/>
<path d="M36450 31562 c-492 -8 -896 -16 -898 -17 -1 -1 5 -422 13 -936 32
-1954 101 -6642 130 -8774 31 -2312 35 -2646 42 -3524 l6 -899 -114 29 c-411
105 -913 181 -1374 210 -213 13 -785 7 -955 -11 -884 -90 -1522 -315 -1983
-700 -247 -206 -410 -447 -560 -825 -145 -365 -207 -675 -207 -1035 1 -309 45
-552 152 -820 409 -1030 1632 -1768 3118 -1881 195 -15 677 -6 850 16 1049
130 1861 561 2395 1270 384 511 596 1140 635 1885 8 145 -4 2223 -48 8110 -33
4353 -60 7916 -61 7918 -1 3 -61 2 -1141 -16z"/>
<path d="M15160 19854 c0 -55 65 -2988 145 -6519 80 -3531 145 -6455 145
-6497 l0 -78 -42 7 c-75 14 -1088 9 -1248 -5 -897 -80 -1528 -235 -2080 -511
-660 -331 -1076 -802 -1249 -1416 -113 -404 -119 -898 -16 -1300 195 -759 799
-1323 1750 -1635 807 -264 1853 -312 2632 -120 491 121 939 337 1331 642 127
99 382 349 476 468 323 407 509 833 588 1340 19 129 22 178 20 440 -1 162 -46
2097 -100 4298 -53 2202 -95 4005 -92 4007 10 5 7185 -447 7192 -453 7 -7 478
-6463 472 -6471 -2 -2 -47 2 -101 8 -210 25 -491 41 -793 47 -1341 27 -2430
-233 -3108 -740 -482 -361 -752 -821 -849 -1446 -25 -163 -25 -639 1 -825 76
-553 349 -1003 826 -1364 520 -393 1215 -635 2040 -712 199 -19 668 -16 878 5
921 91 1643 395 2206 927 487 461 836 1135 975 1884 49 263 87 734 74 920 -2
33 -179 3354 -393 7379 -215 4026 -392 7321 -393 7323 -2 1 -2491 111 -5533
242 -3041 132 -5580 243 -5641 247 l-113 6 0 -98z m5739 -2209 c1932 -90 3516
-167 3519 -170 7 -6 201 -2508 195 -2515 -6 -6 -7143 327 -7150 334 -5 4 -141
2392 -143 2494 0 18 5 22 33 22 17 0 1613 -74 3546 -165z"/>
</g>
</svg>
