<?xml version="1.0" standalone="no"?>
<!DOCTYPE svg PUBLIC "-//W3C//DTD SVG 20010904//EN"
 "http://www.w3.org/TR/2001/REC-SVG-20010904/DTD/svg10.dtd">
<svg version="1.0" xmlns="http://www.w3.org/2000/svg"
 width="231.000000pt" height="218.000000pt" viewBox="0 0 231.000000 218.000000"
 preserveAspectRatio="xMidYMid meet">
<metadata>
Created by potrace 1.15, written by Peter Selinger 2001-2017
</metadata>
<g transform="translate(0.000000,218.000000) scale(0.100000,-0.100000)"
fill="#000000" stroke="none">
<path d="M931 2146 c-13 -7 -32 -29 -40 -47 -16 -33 -18 -34 -73 -31 -69 4
-122 -18 -144 -59 -20 -39 -29 -115 -15 -123 25 -16 694 -137 703 -128 5 5 12
36 15 68 4 51 2 64 -19 94 -23 34 -41 43 -138 69 -21 5 -26 14 -30 54 -3 26
-13 54 -22 63 -15 16 -153 53 -193 53 -11 0 -31 -6 -44 -13z"/>
<path d="M340 2068 c-6 -13 -84 -410 -174 -883 -117 -613 -162 -864 -155 -877
5 -10 20 -20 32 -23 12 -3 321 -64 687 -135 628 -122 666 -129 681 -112 12 12
42 159 103 496 48 263 85 481 83 483 -3 2 -16 -1 -29 -8 -29 -12 -18 31 -139
-594 -34 -176 -65 -324 -70 -329 -6 -7 -1272 229 -1287 240 -2 1 10 71 26 156
17 84 90 461 162 838 73 377 135 688 139 692 3 4 47 -2 96 -12 119 -25 121
-25 134 10 12 37 21 33 -129 60 -143 25 -148 25 -160 -2z"/>
<path d="M1430 1854 c0 -27 5 -35 23 -38 12 -3 69 -14 126 -26 58 -11 106 -22
108 -24 2 -1 -4 -38 -13 -80 -9 -43 -14 -79 -12 -81 2 -3 18 4 35 15 25 15 33
29 42 70 14 67 14 115 -1 128 -7 5 -79 23 -160 40 l-148 29 0 -33z"/>
<path d="M473 1765 c-26 -18 -34 -45 -63 -197 -19 -100 -21 -122 -10 -148 7
-17 21 -35 30 -40 20 -11 264 -60 297 -60 12 0 33 10 47 23 22 18 30 43 51
146 45 224 43 229 -151 266 -151 29 -172 30 -201 10z m196 -40 c67 -13 129
-29 137 -36 20 -16 17 -66 -10 -198 -24 -115 -38 -141 -75 -141 -9 0 -72 12
-141 25 -175 35 -170 28 -137 201 27 141 42 174 81 174 12 0 77 -11 145 -25z"/>
<path d="M2042 1710 l-82 -39 46 -98 c26 -54 60 -128 77 -165 17 -38 35 -68
39 -68 5 0 45 18 89 40 113 57 113 62 44 214 -56 120 -82 156 -114 156 -9 0
-54 -18 -99 -40z"/>
<path d="M961 1666 c-28 -34 -4 -43 260 -94 143 -28 267 -48 275 -45 16 6 19
39 4 48 -8 5 -503 105 -521 105 -4 0 -12 -6 -18 -14z"/>
<path d="M1495 1454 l-410 -196 -113 -156 -113 -157 193 -11 193 -11 413 195
c226 107 412 200 412 206 -1 18 -146 320 -156 322 -5 2 -193 -85 -419 -192z
m502 0 c-3 -3 -688 -325 -745 -350 l-52 -24 -43 87 c-23 47 -37 88 -32 90 6 2
186 86 400 187 l390 183 42 -86 c23 -47 41 -86 40 -87z m41 -79 l22 -45 -48
-24 c-88 -44 -751 -356 -757 -356 -9 0 -46 92 -40 99 12 11 770 369 786 370 9
1 24 -18 37 -44z m-866 -288 c36 -78 65 -142 65 -142 -1 0 -43 1 -93 3 l-92 3
-31 69 -32 69 51 70 c29 39 55 71 58 71 4 0 37 -64 74 -143z"/>
<path d="M932 1518 c-17 -17 -15 -36 6 -46 9 -5 85 -22 169 -37 151 -28 153
-28 193 -10 27 12 37 21 28 25 -7 4 -89 22 -183 39 -93 18 -177 34 -185 37 -9
2 -21 -1 -28 -8z"/>
<path d="M373 1260 c-26 -24 -28 -28 -57 -180 -25 -134 -23 -164 15 -192 21
-16 252 -68 302 -68 10 0 31 12 46 28 22 22 31 45 44 118 21 113 21 112 -1 83
-11 -13 -25 -53 -31 -89 -15 -77 -25 -97 -50 -105 -27 -8 -283 43 -300 60 -8
8 -14 27 -14 42 1 53 46 258 61 276 19 22 47 22 172 -4 88 -18 104 -19 117 -7
12 12 -3 17 -106 36 -147 27 -172 27 -198 2z"/>
<path d="M724 1213 c-25 -26 -75 -83 -112 -125 -37 -42 -71 -76 -76 -74 -4 1
-24 41 -43 89 -31 76 -38 87 -59 87 -14 0 -27 -7 -30 -15 -8 -21 86 -255 107
-266 22 -11 33 -2 183 167 64 73 116 139 116 148 0 8 -9 20 -21 26 -18 10 -26
6 -65 -37z"/>
<path d="M272 757 c-16 -17 -29 -58 -47 -146 -45 -223 -45 -225 167 -265 199
-38 203 -35 242 158 32 158 32 168 3 202 -20 23 -41 30 -143 50 -156 30 -194
30 -222 1z m212 -31 c121 -24 146 -37 146 -77 0 -9 -11 -71 -25 -139 -14 -68
-25 -124 -25 -126 0 -2 -11 -11 -24 -19 -22 -15 -34 -14 -157 10 -141 27 -169
41 -169 84 1 47 47 260 60 276 17 20 52 18 194 -9z"/>
<path d="M773 654 c-3 -8 1 -21 8 -28 14 -13 473 -106 522 -106 29 0 41 22 24
43 -12 14 -464 107 -521 107 -15 0 -29 -7 -33 -16z"/>
<path d="M744 505 c-3 -8 -4 -20 -2 -27 5 -14 522 -120 544 -111 22 8 16 42
-8 53 -25 10 -483 100 -511 100 -10 0 -20 -7 -23 -15z"/>
</g>
</svg>
