<?xml version="1.0" standalone="no"?>
<!DOCTYPE svg PUBLIC "-//W3C//DTD SVG 20010904//EN"
 "http://www.w3.org/TR/2001/REC-SVG-20010904/DTD/svg10.dtd">
<svg version="1.0" xmlns="http://www.w3.org/2000/svg"
 width="747.000000pt" height="293.000000pt" viewBox="0 0 747.000000 293.000000"
 preserveAspectRatio="xMidYMid meet">
<metadata>
Created by potrace 1.15, written by Peter Selinger 2001-2017
</metadata>
<g transform="translate(0.000000,293.000000) scale(0.100000,-0.100000)"
fill="#000000" stroke="none">
<path d="M6950 2220 l0 -250 -490 0 -490 0 0 125 c0 77 -4 125 -10 125 -6 0
-10 -48 -10 -125 l0 -125 -470 0 -470 0 0 65 c0 37 -4 65 -10 65 -6 0 -10 -28
-10 -65 l0 -65 -2088 0 -2089 0 5 73 c5 82 -17 214 -48 285 -23 51 -53 56 -92
15 -57 -60 -118 -232 -118 -330 l0 -43 -240 0 c-153 0 -240 -4 -240 -10 0 -6
86 -10 239 -10 l240 0 6 -47 c4 -27 11 -66 15 -88 8 -34 6 -43 -12 -62 -21
-23 -26 -23 -255 -23 -149 0 -233 -4 -233 -10 0 -6 82 -10 226 -10 l226 0 -54
-60 c-30 -32 -70 -86 -89 -119 l-34 -60 -137 -1 c-85 0 -138 -4 -138 -10 0 -6
52 -10 135 -10 l135 0 -7 -27 c-5 -16 -8 -65 -8 -111 l0 -82 -127 0 c-79 0
-128 -4 -128 -10 0 -6 50 -10 130 -10 l130 0 22 -47 c28 -60 105 -138 161
-163 l42 -20 -242 0 c-155 0 -243 -4 -243 -10 0 -6 120 -10 339 -10 l339 0 17
-95 c27 -147 10 -208 -66 -248 -41 -22 -111 -18 -139 8 -28 25 -25 32 10 27
23 -3 36 3 60 26 59 60 28 147 -57 159 -37 5 -46 2 -72 -24 -31 -32 -47 -86
-37 -127 17 -70 109 -124 192 -112 130 17 178 119 139 296 -8 36 -14 71 -15
78 0 9 134 12 640 12 l640 0 0 -70 0 -71 -32 17 c-69 35 -190 -8 -225 -81 -16
-33 -19 -35 -70 -35 -29 0 -53 -4 -53 -10 0 -5 23 -10 50 -10 44 0 50 -3 50
-21 0 -108 186 -119 265 -15 25 33 31 36 81 36 30 0 54 5 54 10 0 6 -22 10
-50 10 l-50 0 0 120 0 120 398 0 397 -1 -28 -20 c-15 -12 -37 -39 -47 -60 -34
-66 -24 -116 30 -144 68 -35 168 -5 219 66 26 35 31 51 31 101 l0 58 330 0
330 0 0 -26 c0 -116 190 -127 267 -15 l28 40 1713 1 c1134 0 1712 3 1712 10 0
7 -577 10 -1710 10 l-1710 0 0 115 0 115 330 0 330 0 0 -26 c0 -116 190 -127
267 -15 l28 40 1233 1 c814 0 1232 3 1232 10 0 7 -276 10 -807 10 -803 0 -808
0 -776 19 52 32 83 87 83 148 l0 53 750 0 c493 0 750 3 750 10 0 6 -114 10
-322 10 l-323 0 42 19 c24 12 55 37 72 62 26 35 31 51 31 101 l0 58 250 0
c160 0 250 4 250 10 0 6 -90 10 -250 10 l-250 0 0 110 0 110 250 0 c160 0 250
4 250 10 0 6 -90 10 -250 10 l-250 0 0 250 c0 160 -4 250 -10 250 -6 0 -10
-90 -10 -250z m-6183 -30 c15 -57 16 -135 2 -182 l-10 -38 -80 0 -79 0 6 28
c31 143 85 246 127 240 17 -2 25 -14 34 -48z m4223 -350 l0 -110 -470 0 -470
0 0 60 c0 33 -4 60 -10 60 -6 0 -10 -27 -10 -60 l0 -60 -1650 0 c-907 0 -1650
2 -1650 5 0 3 11 27 24 53 13 26 29 68 35 92 7 25 14 51 16 58 4 9 431 12
2095 12 l2090 0 0 -110z m960 0 l0 -110 -470 0 -470 0 0 110 0 110 470 0 470
0 0 -110z m1000 0 l0 -110 -490 0 -490 0 0 110 0 110 490 0 490 0 0 -110z
m-3880 -250 l0 -120 -490 0 -490 0 0 65 c0 37 -4 65 -10 65 -6 0 -10 -28 -10
-65 l0 -65 -692 2 -692 3 -18 78 -18 78 32 40 31 39 1179 0 1178 0 0 -120z
m960 0 l0 -120 -470 0 -470 0 0 120 0 120 470 0 470 0 0 -120z m960 0 l0 -120
-470 0 -470 0 0 120 0 120 470 0 470 0 0 -120z m960 2 l0 -119 -470 -2 -470
-2 0 120 0 121 470 0 470 0 0 -118z m787 97 c-15 -12 -37 -39 -47 -60 -34 -65
-24 -116 28 -143 24 -14 -13 -15 -360 -16 l-388 0 0 120 0 120 398 0 397 -1
-28 -20z m-6175 -283 c-40 -44 -62 -96 -62 -148 0 -27 -2 -28 -50 -28 -48 0
-50 1 -50 28 0 39 25 120 50 160 19 31 22 32 86 32 l67 0 -41 -44z m1508 -66
l0 -110 -563 0 -563 0 -13 61 c-10 50 -20 68 -60 110 l-47 49 623 0 623 0 0
-110z m1000 0 l0 -110 -490 0 -490 0 0 110 0 110 490 0 490 0 0 -110z m960 0
l0 -110 -470 0 -470 0 0 110 0 110 470 0 470 0 0 -110z m960 45 l0 -66 -32 17
c-66 34 -187 -7 -223 -76 l-16 -30 -334 0 -335 0 0 110 0 110 470 0 470 0 0
-65z m742 49 c-29 -20 -62 -86 -62 -124 0 -19 9 -40 25 -55 l24 -25 -354 0
-355 0 0 110 0 110 372 0 c341 0 371 -1 350 -16z m-5214 -258 c15 -40 74 -96
102 -96 28 0 25 7 -9 24 -26 14 -61 68 -61 95 0 7 30 11 84 11 l84 0 18 -95
c10 -52 15 -98 11 -101 -13 -13 -98 -16 -146 -4 -94 22 -167 88 -191 170 l-9
30 53 0 c50 0 52 -1 64 -34z m352 7 c-1 -41 -33 -106 -66 -132 l-29 -23 -12
54 c-7 29 -15 70 -18 91 l-7 37 66 0 c65 0 66 0 66 -27z m1200 -88 l0 -115
-645 0 c-355 0 -645 4 -645 8 0 4 13 15 28 24 51 31 111 104 123 152 l11 46
564 0 564 0 0 -115z m1000 0 l0 -115 -490 0 -490 0 0 115 0 115 490 0 490 0 0
-115z m960 45 l0 -71 -32 17 c-66 34 -187 -7 -223 -76 l-16 -30 -334 0 -335 0
0 115 0 115 470 0 470 0 0 -70z"/>
</g>
</svg>
