<?xml version="1.0" standalone="no"?>
<!DOCTYPE svg PUBLIC "-//W3C//DTD SVG 20010904//EN"
 "http://www.w3.org/TR/2001/REC-SVG-20010904/DTD/svg10.dtd">
<svg version="1.0" xmlns="http://www.w3.org/2000/svg"
 width="720.000000pt" height="720.000000pt" viewBox="0 0 720.000000 720.000000"
 preserveAspectRatio="xMidYMid meet">
<metadata>
Created by potrace 1.15, written by Peter Selinger 2001-2017
</metadata>
<g transform="translate(0.000000,720.000000) scale(0.100000,-0.100000)"
fill="#000000" stroke="none">
<path d="M674 6529 c-367 -367 -669 -676 -670 -686 -2 -12 337 -359 1109
-1130 l1112 -1113 -1112 -1112 c-772 -772 -1111 -1119 -1109 -1131 3 -25 1333
-1354 1354 -1354 10 -1 513 495 1130 1111 l1112 1111 1113 -1112 c771 -772
1118 -1111 1130 -1109 25 3 1354 1333 1354 1354 1 10 -495 513 -1111 1130
l-1111 1112 1111 1113 c616 616 1112 1119 1111 1129 0 21 -1329 1351 -1354
1354 -12 2 -359 -337 -1130 -1109 l-1113 -1112 -1112 1111 c-617 616 -1120
1112 -1130 1111 -9 0 -317 -301 -684 -668z"/>
<path d="M2492 6093 l1108 -1108 1105 1105 c607 607 1102 1106 1099 1109 -3 3
-500 -490 -1104 -1094 l-1100 -1100 -1098 1098 c-603 603 -1102 1097 -1107
1097 -5 0 488 -498 1097 -1107z"/>
<path d="M0 5805 c0 -5 494 -504 1097 -1107 l1098 -1098 -1100 -1100 c-604
-604 -1097 -1101 -1094 -1104 3 -3 502 492 1109 1099 l1105 1105 -1108 1108
c-609 609 -1107 1102 -1107 1097z"/>
<path d="M6090 4705 l-1105 -1105 1105 -1105 c607 -607 1106 -1102 1109 -1099
3 3 -490 500 -1094 1104 l-1100 1100 1100 1100 c604 604 1097 1101 1094 1104
-3 3 -502 -492 -1109 -1099z"/>
<path d="M2490 1105 c-608 -608 -1100 -1105 -1095 -1105 5 0 504 494 1107
1097 l1098 1098 1098 -1098 c603 -603 1102 -1097 1107 -1097 5 0 -487 497
-1095 1105 -608 608 -1107 1105 -1110 1105 -3 0 -502 -497 -1110 -1105z"/>
</g>
</svg>
